<svg width="32" height="32" viewBox="0 0 12 12" xmlns="http://www.w3.org/2000/svg">
  <!-- Pixel interceptor favicon — design system §01 Option A, centered on a 12-unit grid -->
  <rect x="5.5" y="1" width="1" height="2" fill="#3FE0FF"/>
  <rect x="4.5" y="3" width="3" height="1" fill="#3FE0FF"/>
  <rect x="4.5" y="4" width="1" height="1" fill="#3FE0FF"/>
  <rect x="5.5" y="4" width="1" height="1" fill="#E8EEF9"/>
  <rect x="6.5" y="4" width="1" height="1" fill="#3FE0FF"/>
  <rect x="3.5" y="5" width="5" height="2" fill="#3FE0FF"/>
  <rect x="1.5" y="7" width="9" height="1" fill="#3FE0FF"/>
  <rect x="1.5" y="8" width="2" height="1" fill="#3FE0FF"/>
  <rect x="4.5" y="8" width="1" height="1" fill="#8F7BFF"/>
  <rect x="6.5" y="8" width="1" height="1" fill="#8F7BFF"/>
  <rect x="8.5" y="8" width="2" height="1" fill="#3FE0FF"/>
  <rect x="3.5" y="9" width="1" height="1" fill="#FFB444"/>
  <rect x="5.5" y="9" width="1" height="1" fill="#FFB444"/>
  <rect x="7.5" y="9" width="1" height="1" fill="#FFB444"/>
  <rect x="5.5" y="10" width="1" height="1" fill="#FFB444" opacity="0.55"/>
</svg>
